v 0.000000 -1.000000 0.000000
v 0.723600 -0.447215 0.525720
v -0.276385 -0.447215 0.850640
v -0.894425 -0.447215 0.000000
v -0.276385 -0.447215 -0.850640
v 0.723600 -0.447215 -0.525720
v 0.276385 0.447215 0.850640
v -0.723600 0.447215 0.525720
v -0.723600 0.447215 -0.525720
v 0.276385 0.447215 -0.850640
v 0.894425 0.447215 0.000000
v 0.000000 1.000000 0.000000
v -0.138193 -0.723608 0.425320
v 0.361800 -0.723607 0.262860
v 0.223607 -0.447215 0.688180
v 0.723600 -0.447215 0.000000
v 0.361800 -0.723607 -0.262860
v -0.447212 -0.723608 0.000000
v -0.585405 -0.447215 0.425320
v -0.138193 -0.723608 -0.425320
v -0.585405 -0.447215 -0.425320
v 0.223607 -0.447215 -0.688180
v 0.809012 0.000000 0.262860
v 0.809012 0.000000 -0.262860
v 0.000000 0.000000 0.850640
v 0.499992 0.000000 0.688180
v -0.809012 0.000000 0.262860
v -0.499992 0.000000 0.688180
v -0.499992 0.000000 -0.688180
v -0.809012 0.000000 -0.262860
v 0.499992 0.000000 -0.688180
v 0.000000 0.000000 -0.850640
v 0.585405 0.447215 0.425320
v -0.223607 0.447215 0.688180
v -0.723600 0.447215 0.000000
v -0.223607 0.447215 -0.688180
v 0.585405 0.447215 -0.425320
v 0.138193 0.723607 0.425320
v 0.447212 0.723608 0.000000
v -0.361800 0.723607 0.262860
v -0.361800 0.723607 -0.262860
v 0.138193 0.723607 -0.425320
vn 0.1876 -0.7947 0.5774
vn 0.6071 -0.7947 -0.0000
vn -0.4911 -0.7947 0.3568
vn -0.4911 -0.7947 -0.3568
vn 0.1876 -0.7947 -0.5774
vn 0.9822 -0.1876 -0.0000
vn 0.3035 -0.1876 0.9342
vn -0.7946 -0.1876 0.5774
vn -0.7946 -0.1876 -0.5774
vn 0.3035 -0.1876 -0.9342
vn 0.7946 0.1876 0.5774
vn -0.3035 0.1876 0.9342
vn -0.9822 0.1876 -0.0000
vn -0.3035 0.1876 -0.9342
vn 0.7946 0.1876 -0.5774
vn 0.4911 0.7947 0.3568
vn -0.1876 0.7947 0.5774
vn -0.6071 0.7947 -0.0000
vn -0.1876 0.7947 -0.5774
vn 0.4911 0.7947 -0.3568
vt 0.181819 0.000000
vt 0.227273 0.078731
vt 0.136365 0.078731
vt 0.272728 0.157461
vt 0.318182 0.078731
vt 0.363637 0.157461
vt 0.909091 0.000000
vt 0.954545 0.078731
vt 0.863636 0.078731
vt 0.727273 0.000000
vt 0.772727 0.078731
vt 0.681818 0.078731
vt 0.545455 0.000000
vt 0.590909 0.078731
vt 0.500000 0.078731
vt 0.318182 0.236191
vt 0.090910 0.157461
vt 0.181819 0.157461
vt 0.136365 0.236191
vt 0.818182 0.157461
vt 0.909091 0.157461
vt 0.863636 0.236191
vt 0.636364 0.157461
vt 0.727273 0.157461
vt 0.681818 0.236191
vt 0.454546 0.157461
vt 0.545455 0.157461
vt 0.500000 0.236191
vt 0.227273 0.236191
vt 0.045455 0.236191
vt 0.772727 0.236191
vt 0.590909 0.236191
vt 0.409092 0.236191
vt 0.181819 0.314921
vt 0.272728 0.314921
vt 0.227273 0.393651
vt 0.000000 0.314921
vt 0.090910 0.314921
vt 0.045455 0.393651
vt 0.727273 0.314921
vt 0.818182 0.314921
vt 0.772727 0.393651
vt 0.545455 0.314921
vt 0.636364 0.314921
vt 0.590909 0.393651
vt 0.363637 0.314921
vt 0.454546 0.314921
vt 0.409092 0.393651
vt 0.500000 0.393651
vt 0.454546 0.472382
vt 0.681818 0.393651
vt 0.636364 0.472382
vt 0.863636 0.393651
vt 0.818182 0.472382
vt 0.909091 0.314921
vt 0.136365 0.393651
vt 0.090910 0.472382
vt 0.318182 0.393651
vt 0.272728 0.472382
vt 0.954545 0.236191
vt 1.000000 0.157461
vt 0.409092 0.078731
vt 0.363637 0.000000
s 0
f 1/1/1 14/2/1 13/3/1
f 2/4/2 14/5/2 16/6/2
f 1/7/3 13/8/3 18/9/3
f 1/10/4 18/11/4 20/12/4
f 1/13/5 20/14/5 17/15/5
f 2/4/6 16/6/6 23/16/6
f 3/17/7 15/18/7 25/19/7
f 4/20/8 19/21/8 27/22/8
f 5/23/9 21/24/9 29/25/9
f 6/26/10 22/27/10 31/28/10
f 2/4/11 23/16/11 26/29/11
f 3/17/12 25/19/12 28/30/12
f 4/20/13 27/22/13 30/31/13
f 5/23/14 29/25/14 32/32/14
f 6/26/15 31/28/15 24/33/15
f 7/34/16 33/35/16 38/36/16
f 8/37/17 34/38/17 40/39/17
f 9/40/18 35/41/18 41/42/18
f 10/43/19 36/44/19 42/45/19
f 11/46/20 37/47/20 39/48/20
f 39/48/20 42/49/20 12/50/20
f 39/48/20 37/47/20 42/49/20
f 37/47/20 10/43/20 42/49/20
f 42/45/19 41/51/19 12/52/19
f 42/45/19 36/44/19 41/51/19
f 36/44/19 9/40/19 41/51/19
f 41/42/18 40/53/18 12/54/18
f 41/42/18 35/41/18 40/53/18
f 35/41/18 8/55/18 40/53/18
f 40/39/17 38/56/17 12/57/17
f 40/39/17 34/38/17 38/56/17
f 34/38/17 7/34/17 38/56/17
f 38/36/16 39/58/16 12/59/16
f 38/36/16 33/35/16 39/58/16
f 33/35/16 11/46/16 39/58/16
f 24/33/15 37/47/15 11/46/15
f 24/33/15 31/28/15 37/47/15
f 31/28/15 10/43/15 37/47/15
f 32/32/14 36/44/14 10/43/14
f 32/32/14 29/25/14 36/44/14
f 29/25/14 9/40/14 36/44/14
f 30/31/13 35/41/13 9/40/13
f 30/31/13 27/22/13 35/41/13
f 27/22/13 8/55/13 35/41/13
f 28/30/12 34/38/12 8/37/12
f 28/30/12 25/19/12 34/38/12
f 25/19/12 7/34/12 34/38/12
f 26/29/11 33/35/11 7/34/11
f 26/29/11 23/16/11 33/35/11
f 23/16/11 11/46/11 33/35/11
f 31/28/10 32/32/10 10/43/10
f 31/28/10 22/27/10 32/32/10
f 22/27/10 5/23/10 32/32/10
f 29/25/9 30/31/9 9/40/9
f 29/25/9 21/24/9 30/31/9
f 21/24/9 4/20/9 30/31/9
f 27/22/8 28/60/8 8/55/8
f 27/22/8 19/21/8 28/60/8
f 19/21/8 3/61/8 28/60/8
f 25/19/7 26/29/7 7/34/7
f 25/19/7 15/18/7 26/29/7
f 15/18/7 2/4/7 26/29/7
f 23/16/6 24/33/6 11/46/6
f 23/16/6 16/6/6 24/33/6
f 16/6/6 6/26/6 24/33/6
f 17/15/5 22/27/5 6/26/5
f 17/15/5 20/14/5 22/27/5
f 20/14/5 5/23/5 22/27/5
f 20/12/4 21/24/4 5/23/4
f 20/12/4 18/11/4 21/24/4
f 18/11/4 4/20/4 21/24/4
f 18/9/3 19/21/3 4/20/3
f 18/9/3 13/8/3 19/21/3
f 13/8/3 3/61/3 19/21/3
f 16/6/2 17/62/2 6/26/2
f 16/6/2 14/5/2 17/62/2
f 14/5/2 1/63/2 17/62/2
f 13/3/1 15/18/1 3/17/1
f 13/3/1 14/2/1 15/18/1
f 14/2/1 2/4/1 15/18/1
o Icosphere
v 0.000000 -1.000000 0.000000
v 0.723600 -0.447215 0.525720
v -0.276385 -0.447215 0.850640
v -0.894425 -0.447215 0.000000
v -0.276385 -0.447215 -0.850640
v 0.723600 -0.447215 -0.525720
v 0.276385 0.447215 0.850640
v -0.723600 0.447215 0.525720
v -0.723600 0.447215 -0.525720
v 0.276385 0.447215 -0.850640
v 0.894425 0.447215 0.000000
v 0.000000 1.000000 0.000000
vn 0.1876 -0.7947 0.5774
vn 0.6071 -0.7947 -0.0000
vn -0.4911 -0.7947 0.3568
vn -0.4911 -0.7947 -0.3568
vn 0.1876 -0.7947 -0.5774
vn 0.9822 -0.1876 -0.0000
vn 0.3035 -0.1876 0.9342
vn -0.7946 -0.1876 0.5774
vn -0.7946 -0.1876 -0.5774
vn 0.3035 -0.1876 -0.9342
vn 0.7946 0.1876 0.5774
vn -0.3035 0.1876 0.9342
vn -0.9822 0.1876 -0.0000
vn -0.3035 0.1876 -0.9342
vn 0.7946 0.1876 -0.5774
vn 0.4911 0.7947 0.3568
vn -0.1876 0.7947 0.5774
vn -0.6071 0.7947 -0.0000
vn -0.1876 0.7947 -0.5774
vn 0.4911 0.7947 -0.3568
vt 0.181819 0.000000
vt 0.272728 0.157461
vt 0.090910 0.157461
vt 0.363637 0.000000
vt 0.454546 0.157461
vt 0.909091 0.000000
vt 1.000000 0.157461
vt 0.818182 0.157461
vt 0.727273 0.000000
vt 0.636364 0.157461
vt 0.545455 0.000000
vt 0.363637 0.314921
vt 0.181819 0.314921
vt 0.909091 0.314921
vt 0.727273 0.314921
vt 0.545455 0.314921
vt 0.000000 0.314921
vt 0.272728 0.472382
vt 0.090910 0.472382
vt 0.818182 0.472382
vt 0.636364 0.472382
vt 0.454546 0.472382
s 0
f 43/64/21 44/65/21 45/66/21
f 44/65/22 43/67/22 48/68/22
f 43/69/23 45/70/23 46/71/23
f 43/72/24 46/71/24 47/73/24
f 43/74/25 47/73/25 48/68/25
f 44/65/26 48/68/26 53/75/26
f 45/66/27 44/65/27 49/76/27
f 46/71/28 45/70/28 50/77/28
f 47/73/29 46/71/29 51/78/29
f 48/68/30 47/73/30 52/79/30
f 44/65/31 53/75/31 49/76/31
f 45/66/32 49/76/32 50/80/32
f 46/71/33 50/77/33 51/78/33
f 47/73/34 51/78/34 52/79/34
f 48/68/35 52/79/35 53/75/35
f 49/76/36 53/75/36 54/81/36
f 50/80/37 49/76/37 54/82/37
f 51/78/38 50/77/38 54/83/38
f 52/79/39 51/78/39 54/84/39
f 53/75/40 52/79/40 54/85/40
