v 0.000000 -1.009042 0.000000
v 0.803107 -0.496353 0.583485
v -0.244645 -0.395857 0.752951
v -0.700169 -0.350088 0.000000
v -0.310130 -0.501816 -0.954498
v 0.789777 -0.488115 -0.573800
v 0.214143 0.346503 0.659074
v -0.670686 0.414512 0.487276
v -0.697124 0.430852 -0.506484
v 0.308446 0.499092 -0.949317
v 0.861878 0.430941 0.000000
v -0.000000 1.090019 -0.000000
v -0.114034 -0.597108 0.350965
v 0.440356 -0.880718 0.319934
v 0.239897 -0.479794 0.738315
v 0.793350 -0.490323 0.000000
v 0.346546 -0.693100 -0.251777
v -0.385629 -0.623963 0.000000
v -0.536969 -0.410213 0.390128
v -0.131236 -0.687185 -0.403911
v -0.571934 -0.436924 -0.415533
v 0.246435 -0.492869 -0.758434
v 0.764940 0.000000 0.248540
v 0.859889 -0.000000 -0.279391
v 0.000000 0.000000 0.780893
v 0.462132 0.000000 0.636070
v -0.948269 0.000001 0.308108
v -0.455090 -0.000000 0.626376
v -0.528274 0.000000 -0.727106
v -0.905423 0.000001 -0.294186
v 0.561324 -0.000000 -0.772596
v 0.000000 -0.000000 -0.991646
v 0.523227 0.399716 0.380144
v -0.167526 0.335054 0.515581
v -0.733744 0.453485 0.000000
v -0.258056 0.516110 -0.794199
v 0.625424 0.477787 -0.454396
v 0.136719 0.715891 0.420784
v 0.430400 0.696405 -0.000000
v -0.308302 0.616612 0.223991
v -0.388290 0.776587 -0.282106
v 0.121727 0.637390 -0.374642
vn -0.3021 -0.6653 0.6827
vn 0.7337 -0.6792 -0.0193
vn -0.6057 -0.6065 0.5151
vn -0.6702 -0.6711 -0.3170
vn 0.1977 -0.7343 -0.6494
vn 0.9977 0.0659 -0.0160
vn 0.0162 -0.0804 0.9966
vn -0.7119 -0.6750 0.1938
vn -0.8903 -0.2021 -0.4081
vn 0.3151 -0.2278 -0.9213
vn 0.7115 0.4299 0.5559
vn -0.3187 0.1307 0.9388
vn -0.8385 -0.5417 -0.0596
vn -0.4382 0.2060 -0.8750
vn 0.8405 0.1862 -0.5088
vn 0.5113 0.5390 0.6694
vn 0.0784 0.7358 0.6727
vn -0.7159 0.6932 -0.0827
vn -0.0381 0.9686 -0.2455
vn 0.5153 0.8375 -0.1818
vn 0.5601 0.6124 -0.5579
vn 0.2354 0.9114 -0.3375
vn 0.2793 0.9503 -0.1379
vn 0.0367 0.6430 -0.7650
vn 0.1695 0.8952 -0.4122
vn -0.4655 0.7354 -0.4924
vn -0.7232 0.6174 0.3095
vn -0.4851 0.8088 0.3323
vn -0.4121 0.9024 0.1255
vn -0.4317 0.5999 0.6736
vn -0.4390 0.5311 0.7247
vn -0.3239 0.4640 0.8245
vn 0.6184 0.6762 0.4003
vn 0.6069 0.6916 0.3916
vn 0.4617 0.7504 0.4729
vn 0.8653 0.2699 -0.4224
vn 0.8337 0.2243 -0.5047
vn 0.8233 0.2340 -0.5172
vn -0.2502 0.2343 -0.9394
vn -0.4447 0.1174 -0.8880
vn -0.5637 0.1906 -0.8037
vn -0.9127 0.3999 -0.0839
vn -0.9185 0.3901 -0.0653
vn -0.8503 0.5044 0.1504
vn -0.0034 0.3166 0.9486
vn -0.2770 0.5075 0.8159
vn -0.3206 0.4843 0.8140
vn 0.5859 0.3715 0.7202
vn 0.7600 0.2641 0.5939
vn 0.7197 0.2182 0.6591
vn 0.3597 -0.1441 -0.9219
vn 0.3519 -0.2508 -0.9018
vn 0.3240 -0.2674 -0.9075
vn -0.7534 0.0408 -0.6563
vn -0.7017 -0.3658 -0.6113
vn -0.8052 -0.5792 -0.1274
vn -0.5422 -0.0001 0.8402
vn -0.5076 -0.3517 0.7866
vn -0.7582 -0.2051 0.6190
vn 0.2957 0.1490 0.9436
vn 0.2984 0.0647 0.9522
vn 0.2664 0.0813 0.9604
vn 0.9773 -0.1185 0.1758
vn 0.9837 -0.0327 0.1769
vn 0.9904 -0.1382 -0.0067
vn 0.1397 -0.9111 -0.3877
vn 0.1110 -0.9166 -0.3842
vn 0.1405 -0.9236 -0.3566
vn -0.4868 -0.8634 -0.1325
vn -0.4832 -0.8588 -0.1699
vn -0.6560 -0.7534 -0.0450
vn -0.6486 -0.7449 0.1565
vn -0.3535 -0.8713 0.3403
vn -0.3574 -0.8764 0.3227
vn 0.4161 -0.9093 -0.0061
vn 0.5411 -0.7687 -0.3411
vn 0.4841 -0.8048 -0.3435
vn -0.1442 -0.9028 0.4051
vn -0.3548 -0.7541 0.5526
vn 0.1795 -0.6659 0.7241
vt 0.181819 0.000000
vt 0.227273 0.078731
vt 0.136365 0.078731
vt 0.272728 0.157461
vt 0.318182 0.078731
vt 0.363637 0.157461
vt 0.909091 0.000000
vt 0.954545 0.078731
vt 0.863636 0.078731
vt 0.727273 0.000000
vt 0.772727 0.078731
vt 0.681818 0.078731
vt 0.545455 0.000000
vt 0.590909 0.078731
vt 0.500000 0.078731
vt 0.318182 0.236191
vt 0.090910 0.157461
vt 0.181819 0.157461
vt 0.136365 0.236191
vt 0.818182 0.157461
vt 0.909091 0.157461
vt 0.863636 0.236191
vt 0.636364 0.157461
vt 0.727273 0.157461
vt 0.681818 0.236191
vt 0.454546 0.157461
vt 0.545455 0.157461
vt 0.500000 0.236191
vt 0.227273 0.236191
vt 0.045455 0.236191
vt 0.772727 0.236191
vt 0.590909 0.236191
vt 0.409092 0.236191
vt 0.181819 0.314921
vt 0.272728 0.314921
vt 0.227273 0.393651
vt 0.000000 0.314921
vt 0.090910 0.314921
vt 0.045455 0.393651
vt 0.727273 0.314921
vt 0.818182 0.314921
vt 0.772727 0.393651
vt 0.545455 0.314921
vt 0.636364 0.314921
vt 0.590909 0.393651
vt 0.363637 0.314921
vt 0.454546 0.314921
vt 0.409092 0.393651
vt 0.500000 0.393651
vt 0.454546 0.472382
vt 0.681818 0.393651
vt 0.636364 0.472382
vt 0.863636 0.393651
vt 0.818182 0.472382
vt 0.909091 0.314921
vt 0.136365 0.393651
vt 0.090910 0.472382
vt 0.318182 0.393651
vt 0.272728 0.472382
vt 0.954545 0.236191
vt 1.000000 0.157461
vt 0.409092 0.078731
vt 0.363637 0.000000
s 0
f 1/1/1 14/2/1 13/3/1
f 2/4/2 14/5/2 16/6/2
f 1/7/3 13/8/3 18/9/3
f 1/10/4 18/11/4 20/12/4
f 1/13/5 20/14/5 17/15/5
f 2/4/6 16/6/6 23/16/6
f 3/17/7 15/18/7 25/19/7
f 4/20/8 19/21/8 27/22/8
f 5/23/9 21/24/9 29/25/9
f 6/26/10 22/27/10 31/28/10
f 2/4/11 23/16/11 26/29/11
f 3/17/12 25/19/12 28/30/12
f 4/20/13 27/22/13 30/31/13
f 5/23/14 29/25/14 32/32/14
f 6/26/15 31/28/15 24/33/15
f 7/34/16 33/35/16 38/36/16
f 8/37/17 34/38/17 40/39/17
f 9/40/18 35/41/18 41/42/18
f 10/43/19 36/44/19 42/45/19
f 11/46/20 37/47/20 39/48/20
f 39/48/21 42/49/21 12/50/21
f 39/48/22 37/47/22 42/49/22
f 37/47/23 10/43/23 42/49/23
f 42/45/24 41/51/24 12/52/24
f 42/45/25 36/44/25 41/51/25
f 36/44/26 9/40/26 41/51/26
f 41/42/27 40/53/27 12/54/27
f 41/42/28 35/41/28 40/53/28
f 35/41/29 8/55/29 40/53/29
f 40/39/30 38/56/30 12/57/30
f 40/39/31 34/38/31 38/56/31
f 34/38/32 7/34/32 38/56/32
f 38/36/33 39/58/33 12/59/33
f 38/36/34 33/35/34 39/58/34
f 33/35/35 11/46/35 39/58/35
f 24/33/36 37/47/36 11/46/36
f 24/33/37 31/28/37 37/47/37
f 31/28/38 10/43/38 37/47/38
f 32/32/39 36/44/39 10/43/39
f 32/32/40 29/25/40 36/44/40
f 29/25/41 9/40/41 36/44/41
f 30/31/42 35/41/42 9/40/42
f 30/31/43 27/22/43 35/41/43
f 27/22/44 8/55/44 35/41/44
f 28/30/45 34/38/45 8/37/45
f 28/30/46 25/19/46 34/38/46
f 25/19/47 7/34/47 34/38/47
f 26/29/48 33/35/48 7/34/48
f 26/29/49 23/16/49 33/35/49
f 23/16/50 11/46/50 33/35/50
f 31/28/51 32/32/51 10/43/51
f 31/28/52 22/27/52 32/32/52
f 22/27/53 5/23/53 32/32/53
f 29/25/54 30/31/54 9/40/54
f 29/25/55 21/24/55 30/31/55
f 21/24/56 4/20/56 30/31/56
f 27/22/57 28/60/57 8/55/57
f 27/22/58 19/21/58 28/60/58
f 19/21/59 3/61/59 28/60/59
f 25/19/60 26/29/60 7/34/60
f 25/19/61 15/18/61 26/29/61
f 15/18/62 2/4/62 26/29/62
f 23/16/63 24/33/63 11/46/63
f 23/16/64 16/6/64 24/33/64
f 16/6/65 6/26/65 24/33/65
f 17/15/66 22/27/66 6/26/66
f 17/15/67 20/14/67 22/27/67
f 20/14/68 5/23/68 22/27/68
f 20/12/69 21/24/69 5/23/69
f 20/12/70 18/11/70 21/24/70
f 18/11/71 4/20/71 21/24/71
f 18/9/72 19/21/72 4/20/72
f 18/9/73 13/8/73 19/21/73
f 13/8/74 3/61/74 19/21/74
f 16/6/75 17/62/75 6/26/75
f 16/6/76 14/5/76 17/62/76
f 14/5/77 1/63/77 17/62/77
f 13/3/78 15/18/78 3/17/78
f 13/3/79 14/2/79 15/18/79
f 14/2/80 2/4/80 15/18/80
